<mxfile host="app.diagrams.net" modified="2021-08-04T13:42:36.085Z" agent="5.0 (Macintosh; Intel Mac OS X 11_1_0) AppleWebKit/537.36 (KHTML, like Gecko) Chrome/88.0.4324.192 Safari/537.36" etag="zAX-M-2u_bkeMHlj9tDG" version="13.5.4" type="github">
  <diagram id="tthJponR6wTbyG3smFAc" name="第 1 页">
    <mxGraphModel dx="1186" dy="620" grid="1" gridSize="10" guides="1" tooltips="1" connect="1" arrows="1" fold="1" page="1" pageScale="1" pageWidth="827" pageHeight="1169" math="0" shadow="0">
      <root>
        <mxCell id="0" />
        <mxCell id="1" parent="0" />
        <mxCell id="BEt1HKcUf7UVFXxwdmTg-4" value="" style="edgeStyle=orthogonalEdgeStyle;rounded=0;orthogonalLoop=1;jettySize=auto;html=1;" edge="1" parent="1" source="BEt1HKcUf7UVFXxwdmTg-1" target="BEt1HKcUf7UVFXxwdmTg-3">
          <mxGeometry relative="1" as="geometry" />
        </mxCell>
        <mxCell id="BEt1HKcUf7UVFXxwdmTg-1" value="测试" style="rounded=1;whiteSpace=wrap;html=1;" vertex="1" parent="1">
          <mxGeometry x="300" y="60" width="120" height="60" as="geometry" />
        </mxCell>
        <mxCell id="BEt1HKcUf7UVFXxwdmTg-6" value="Y" style="edgeStyle=orthogonalEdgeStyle;rounded=0;orthogonalLoop=1;jettySize=auto;html=1;" edge="1" parent="1" source="BEt1HKcUf7UVFXxwdmTg-3" target="BEt1HKcUf7UVFXxwdmTg-5">
          <mxGeometry relative="1" as="geometry" />
        </mxCell>
        <mxCell id="BEt1HKcUf7UVFXxwdmTg-10" value="" style="edgeStyle=orthogonalEdgeStyle;rounded=0;orthogonalLoop=1;jettySize=auto;html=1;" edge="1" parent="1" source="BEt1HKcUf7UVFXxwdmTg-3" target="BEt1HKcUf7UVFXxwdmTg-9">
          <mxGeometry relative="1" as="geometry" />
        </mxCell>
        <mxCell id="BEt1HKcUf7UVFXxwdmTg-3" value="是否符合条件" style="rhombus;whiteSpace=wrap;html=1;" vertex="1" parent="1">
          <mxGeometry x="300" y="160" width="120" height="57" as="geometry" />
        </mxCell>
        <mxCell id="BEt1HKcUf7UVFXxwdmTg-5" value="测试 1" style="whiteSpace=wrap;html=1;" vertex="1" parent="1">
          <mxGeometry x="500" y="158.5" width="120" height="60" as="geometry" />
        </mxCell>
        <mxCell id="BEt1HKcUf7UVFXxwdmTg-11" style="edgeStyle=orthogonalEdgeStyle;rounded=0;orthogonalLoop=1;jettySize=auto;html=1;" edge="1" parent="1" source="BEt1HKcUf7UVFXxwdmTg-9">
          <mxGeometry relative="1" as="geometry">
            <mxPoint x="360" y="410" as="targetPoint" />
          </mxGeometry>
        </mxCell>
        <mxCell id="BEt1HKcUf7UVFXxwdmTg-9" value="过程 2" style="whiteSpace=wrap;html=1;" vertex="1" parent="1">
          <mxGeometry x="300" y="295.5" width="120" height="60" as="geometry" />
        </mxCell>
        <mxCell id="BEt1HKcUf7UVFXxwdmTg-12" value="结束" style="rounded=1;whiteSpace=wrap;html=1;" vertex="1" parent="1">
          <mxGeometry x="300" y="410" width="120" height="60" as="geometry" />
        </mxCell>
      </root>
    </mxGraphModel>
  </diagram>
</mxfile>
